<?xml version="1.0" encoding="utf-8"?>
<!-- Generator: Adobe Illustrator 19.2.1, SVG Export Plug-In . SVG Version: 6.00 Build 0)  -->
<svg version="1.1" id="Layer_1" xmlns="http://www.w3.org/2000/svg" xmlns:xlink="http://www.w3.org/1999/xlink" x="0px" y="0px"
	 viewBox="0 0 1032.7 318.3" style="enable-background:new 0 0 1032.7 318.3;" xml:space="preserve">
<style type="text/css">
	.st0{fill:#F47847;}
	.st1{fill:#F36B2A;}
	.st2{fill:#FFFFFF;}
	.st3{fill:#292C2F;}
</style>
<g id="Page-1">
	<g id="shield-large">
		<g id="Imported-Layers" transform="translate(8.000000, 11.000000)">
			<path id="Fill-1" class="st0" d="M151.6-6.6L151.6-6.6L6.9,44.8l22,190.7l122.4,67.7l124.1-68.6l24.2-190.7L151.6-6.6"/>
			<path id="Fill-2" class="st1" d="M299.3,43.9L151.2-6.6v309.7l124.1-68.6L299.3,43.9L299.3,43.9z"/>
		</g>
	</g>
</g>
<g>
	<path class="st2" d="M444.7,73.4c3.5,1.6,6.5,3.7,8.9,6.4c2.4,2.7,4.2,5.8,5.3,9.6c1.1,3.7,1.4,7.6,0.9,11.7l-15.9,129.4h-19.7
		l2.4-19.7l2.4-20.1l2.6-19.7l5.2-42.8l3.4-27.1c0.3-2.9-0.5-5.4-2.2-7.4c-1.7-2-4-3-7-3h-6c-2.8,0-5.3,1-7.6,3
		c-2.3,2-3.6,4.4-4,7.4l-8.6,69.9l-2.6,19.7l-4.8,39.8h-19.9l5-39.8l2.4-19.7l8.6-69.9c0.3-2.9-0.5-5.4-2.2-7.4c-1.7-2-4.1-3-7-3
		h-5.8c-2.9,0-5.5,1-7.8,3c-2.3,2-3.6,4.4-4,7.4l-3.2,27.1l-5.4,42.8l-2.4,19.7l-2.4,20.1l-2.6,19.7h-19.7l15.9-129.4
		c0.5-4.1,1.8-8,3.8-11.7c2-3.7,4.5-6.9,7.6-9.6c3.1-2.7,6.5-4.8,10.4-6.4c3.8-1.6,7.9-2.4,12.1-2.4h6c8,0,14.4,2.6,19.3,7.8
		c6.2-5.2,13.3-7.8,21.1-7.8h6C437.4,71,441.2,71.8,444.7,73.4z"/>
	<path class="st2" d="M521.9,71l-19.7,159.5h-19.7L502,71C502,71,521.9,71,521.9,71z"/>
	<path class="st2" d="M614.5,79c1.2,1.3,1.8,1.9,1.7,1.8c-0.1-0.1-0.3-0.4-0.8-0.9c-0.5-0.5-0.9-0.9-1.3-1.3
		C613.7,78.2,613.8,78.3,614.5,79c2.8,2.9,4.8,6.3,6,10.3c1.2,3.9,1.5,7.9,1,11.8l-6.2,50.2h-6.2h-13.5l6.2-50.2
		c0.3-2.8-0.5-5.2-2.3-7.3c-1.8-2.1-4.1-3.1-6.9-3.1h-6c-2.8,0-5.3,1-7.7,3c-2.3,2-3.6,4.4-3.9,7.4l-12.3,99.6
		c-0.3,2.8,0.5,5.2,2.3,7.2c1.8,2,4.1,3,6.9,3h6c2.9,0,5.5-1,7.8-3.1c2.3-2.1,3.6-4.5,4-7.5l1-9.6h-17.5l2.4-19.7h17.7h13.5h6.2
		l-3.6,29.3c-0.8,6.5-3.4,12.3-7.7,17.4c-4.3,5.1-9.5,8.8-15.6,11.1c-3.5,1.2-7,1.8-10.6,1.8h-6c-4.1,0-7.9-0.8-11.4-2.3
		c-3.5-1.5-6.4-3.7-8.8-6.4c-2.4-2.7-4.1-5.9-5.3-9.5c-1.1-3.6-1.5-7.4-1.1-11.5l12.2-99.8c0.5-4.1,1.8-8,3.8-11.6
		c2-3.6,4.5-6.8,7.7-9.6c3.1-2.7,6.6-4.9,10.5-6.5c3.8-1.6,7.9-2.4,12.1-2.4h5.8c3.6,0,7.1,0.7,10.6,2C609,74.4,612,76.4,614.5,79z"
		/>
	<path class="st2" d="M721.6,128.6c-0.5,4-1.7,7.7-3.5,11.1c-1.8,3.5-4.1,6.5-6.9,9.2c2.1,2.7,3.7,5.8,4.7,9.3
		c1,3.5,1.2,7.2,0.7,11.1l-7.6,61.3h-19.9l2.6-19.7l5-41.6c0.4-2.9-0.3-5.4-2.1-7.4c-1.8-2-4.1-3-6.9-3h-16.3l-6.4,52l-2.6,19.7
		h-19.7l8.8-71.7h-7.2l2.4-19.7h7.2l8.4-68.1h36.2c4.1,0,7.9,0.8,11.4,2.4c3.5,1.6,6.4,3.7,8.8,6.4c2.4,2.7,4.2,5.8,5.4,9.6
		c1.2,3.7,1.5,7.6,1,11.7L721.6,128.6z M690.2,139.1c2.8,0,5.3-1,7.7-3.1c2.3-2.1,3.6-4.5,3.9-7.5l0.2-0.4l3.2-27.1
		c0.4-2.9-0.3-5.4-2.1-7.4c-1.8-2-4.1-3-7.1-3h-16.1l-4.6,37.4l-1.4,11H690.2z"/>
	<path class="st2" d="M803.3,71c4.1,0,7.9,0.8,11.5,2.4c3.5,1.6,6.5,3.7,8.9,6.4c2.4,2.7,4.1,5.8,5.3,9.6c1.1,3.7,1.4,7.6,0.9,11.7
		l-15.9,129.4h-19.7l2.4-19.7l2.4-20.1h-26.7l-2.4,20.1l-2.4,19.7h-19.9l5-39.8h-7.2l2.4-19.7h7.2l8.6-69.9c0.5-4.1,1.8-8,3.9-11.7
		c2.1-3.7,4.6-6.9,7.7-9.6c3.1-2.7,6.5-4.8,10.3-6.4s7.8-2.4,11.9-2.4L803.3,71L803.3,71z M810,101.1c0.3-2.9-0.5-5.4-2.2-7.4
		c-1.7-2-4.1-3-7-3h-6c-2.8,0-5.4,1-7.7,3c-2.3,2-3.6,4.4-3.9,7.4l-3.4,27.1l-5.2,42.8h26.7l5.2-42.8L810,101.1z"/>
	<path class="st2" d="M926.2,71l-2.4,19.7H922h-20.5l-17.1,139.8h-19.9l17.3-139.8h-4.6h-19.7l2.4-19.7h12.7h11.6h11.7h8
		C903.9,71,926.2,71,926.2,71z"/>
	<path class="st2" d="M1018.8,71l-2.4,19.7h-1.8h-28.5h-5.8c-2.9,0-5.5,1-7.8,3c-2.3,2-3.6,4.4-4,7.4l-3.4,27.1l-1.2,10.8h16.3h11.2
		h1.8l-2.4,19.9h-1.8H978h-16.5l-3.8,31.7l-1,8.4l-0.2,1.4c-0.3,2.7,0.3,4.9,1.6,6.8c1.3,1.9,3.2,3.1,5.6,3.6h18.3h19.7l-2.4,19.7
		v0.2h-19.9H963c-0.5,0-1,0-1.5,0c-0.5,0-1-0.1-1.7-0.2c-2.3-0.1-4.6-0.7-7-1.6c-5.6-2.1-9.9-5.7-12.9-10.9
		c-3.1-5.1-4.2-11-3.4-17.6l1.2-9.6l1.4-10.3l1-9.4l1.6-12.2h-7.2l2.4-19.7h7.2l4.8-38c0.8-6.5,3.4-12.3,7.7-17.4
		c4.3-5.1,9.4-8.7,15.4-10.9c3.3-1.2,6.9-1.8,10.8-1.8h6L1018.8,71L1018.8,71z"/>
</g>
<g>
	<path class="st3" d="M134.3,73.4c3.4,1.6,6.4,3.7,8.8,6.4c2.4,2.7,4.2,5.8,5.4,9.6c1.2,3.7,1.5,7.6,1,11.7l-15.9,129.4h-19.9
		l15.9-129.4c0.4-2.9-0.3-5.4-2.1-7.4c-1.8-2-4.1-3-7.1-3h-5.8c-2.9,0-5.5,1-7.8,3c-2.3,2-3.6,4.5-4,7.4L87,230.5H67.2l15.9-129.4
		c0.5-4.1,1.8-8,3.8-11.7c2-3.7,4.5-6.9,7.6-9.6c3.1-2.7,6.5-4.8,10.4-6.4c3.8-1.6,7.9-2.4,12.1-2.4h6
		C127.1,71,130.9,71.8,134.3,73.4z"/>
	<path class="st3" d="M246.3,79c1.2,1.3,1.8,1.9,1.7,1.8c-0.1-0.1-0.3-0.4-0.8-0.9c-0.5-0.5-0.9-0.9-1.3-1.3
		C245.5,78.2,245.6,78.3,246.3,79c2.8,2.9,4.8,6.3,6,10.3c1.2,3.9,1.5,7.9,1,11.8l-6.2,50.2h-6.2h-13.5l6.2-50.2
		c0.3-2.8-0.5-5.2-2.3-7.3c-1.8-2.1-4.1-3.1-6.9-3.1h-6c-2.8,0-5.3,1-7.7,3c-2.3,2-3.6,4.5-3.9,7.4l-12.3,99.6
		c-0.3,2.8,0.5,5.2,2.3,7.2c1.8,2,4.1,3,6.9,3h6c2.9,0,5.5-1,7.8-3.1c2.3-2.1,3.6-4.5,4-7.5l1-9.6h-17.5l2.4-19.7H225h13.5h6.2
		l-3.6,29.3c-0.8,6.5-3.4,12.3-7.7,17.4c-4.3,5.1-9.5,8.8-15.6,11.1c-3.4,1.2-7,1.8-10.6,1.8h-6c-4.1,0-7.9-0.8-11.3-2.3
		c-3.5-1.5-6.4-3.6-8.8-6.4c-2.4-2.7-4.2-5.9-5.3-9.5c-1.1-3.6-1.5-7.4-1.1-11.5l12.2-99.8c0.5-4.1,1.8-8,3.8-11.6
		c2-3.6,4.5-6.8,7.7-9.6c3.1-2.7,6.6-4.9,10.5-6.5c3.9-1.6,7.9-2.4,12.1-2.4h5.8c3.6,0,7.1,0.7,10.6,2
		C240.8,74.4,243.8,76.4,246.3,79z"/>
</g>
<g>
	<path class="st2" d="M584.1,246.9h10.8v19.4c1.4-1.1,3-2,4.6-2.6c1.7-0.6,3.4-1,5.2-1c2.2,0,4.2,0.4,6,1.2c1.8,0.8,3.4,2,4.7,3.4
		c1.3,1.5,2.3,3.2,3.1,5.3c0.7,2.1,1.1,4.3,1.1,6.8c0,2.7-0.4,5.1-1.2,7.3c-0.8,2.2-1.9,4-3.4,5.6c-1.4,1.6-3.2,2.8-5.1,3.6
		c-2,0.8-4.2,1.3-6.5,1.3c-1.6,0-3.2-0.2-4.6-0.7c-1.4-0.5-2.7-1.1-3.7-1.9v2.1h-6v-44.4h-4.8L584.1,246.9L584.1,246.9z
		 M603.1,268.1c-1.6,0-3.1,0.3-4.5,1c-1.4,0.6-2.7,1.5-3.7,2.6v17.9c0.7,0.7,1.7,1.3,3,1.9c1.3,0.5,3,0.8,5,0.8
		c1.4,0,2.7-0.3,3.9-0.8c1.3-0.5,2.4-1.3,3.3-2.3c1-1,1.7-2.3,2.3-3.9c0.6-1.5,0.9-3.3,0.9-5.4c0-1.9-0.3-3.5-0.8-5
		c-0.5-1.5-1.3-2.7-2.2-3.7c-0.9-1-2-1.8-3.3-2.3C605.8,268.3,604.5,268.1,603.1,268.1z"/>
	<path class="st2" d="M622.8,263.6h12.6v5.5h-3.9l7.8,21.2l8.1-21.2h-3.9v-5.5h12.6v5.5h-3.4l-14.8,37.3h4.6v5.5H629v-5.5h4l3.5-9.1
		l-11.1-28.2h-2.7V263.6z"/>
	<path class="st1" d="M677,248.2h15.8v5.5h-4.9v37.5h4.9v5.5h-15.8v-5.5h4.6v-37.5H677V248.2z M709.1,253.8v-5.5h11.2v5.5h-3.8
		l-21.3,17.9l19.9,19.6h5.2v5.5h-13.1v-5.5L687.9,272L709.1,253.8z"/>
	<path class="st1" d="M727,248.2h34.8V262h-6.6v-8.2H738v15.5h14.6v5.5H738v16.5h17.3v-8.2h6.6v13.7H727v-5.5h4.6v-37.5H727V248.2z"
		/>
	<path class="st1" d="M798.4,248.2h15.8v5.5H810v43.1h-8.2l-22.6-40.3v34.8h5v5.5h-15.8v-5.5h4.5v-37.5h-4.6v-5.6h13.1l22.2,39.9
		l0.3-1.5v-32.8h-5.4L798.4,248.2L798.4,248.2z"/>
	<path class="st1" d="M820.3,248.2h18.1c2.2,0,4.3,0.3,6.4,0.9c2,0.6,3.9,1.4,5.6,2.4c1.7,1,3.3,2.3,4.7,3.8
		c1.4,1.5,2.6,3.1,3.6,4.9c1,1.8,1.8,3.7,2.3,5.8c0.5,2.1,0.8,4.2,0.8,6.4c0,2.3-0.3,4.4-0.8,6.5c-0.5,2.1-1.3,4-2.3,5.8
		c-1,1.8-2.2,3.5-3.6,5c-1.4,1.5-3,2.8-4.7,3.8c-1.7,1.1-3.6,1.9-5.6,2.5c-2,0.6-4.1,0.9-6.4,0.9h-18.1v-5.5h4.6v-37.5h-4.6V248.2z
		 M831.2,253.8v37.5h7.6c2.2,0,4.4-0.5,6.3-1.5c2-1,3.7-2.3,5.2-4c1.5-1.7,2.6-3.7,3.5-6c0.9-2.3,1.3-4.8,1.3-7.4
		c0-2.6-0.4-5-1.3-7.3c-0.9-2.3-2-4.2-3.5-5.9c-1.5-1.7-3.2-3-5.2-4c-2-1-4.1-1.4-6.3-1.4H831.2z"/>
	<path class="st1" d="M890.1,297.8c-3.4,0-6.4-0.6-9.2-1.9c-2.8-1.2-5.3-3-7.4-5.3c-2.2-2.3-3.8-5-5-8.2c-1.1-3.2-1.7-6.4-1.7-9.8
		c0-3.5,0.6-6.8,1.7-9.9c1.1-3.1,2.7-5.8,4.8-8c2.1-2.3,4.5-4.1,7.4-5.4c2.9-1.3,6-2,9.4-2c3.4,0,6.6,0.7,9.5,2
		c2.9,1.3,5.3,3.1,7.4,5.4c2,2.3,3.6,4.9,4.8,8c1.1,3.1,1.7,6.4,1.7,9.9s-0.6,6.8-1.7,9.9c-1.1,3.1-2.7,5.7-4.8,8
		c-2.1,2.3-4.5,4.1-7.4,5.4C896.7,297.1,893.5,297.8,890.1,297.8z M890.1,291.8c2.5,0,4.8-0.5,6.9-1.6c2.1-1,3.8-2.5,5.3-4.2
		c1.5-1.8,2.6-3.8,3.4-6.1c0.8-2.3,1.2-4.8,1.2-7.4c0-2.6-0.4-5.2-1.3-7.7c-0.9-2.5-2.1-4.6-3.6-6.3s-3.3-3-5.4-4
		c-2.1-0.9-4.2-1.4-6.4-1.4c-2.5,0-4.9,0.5-6.9,1.6c-2.1,1-3.8,2.5-5.3,4.2s-2.6,3.8-3.4,6.2c-0.8,2.3-1.2,4.8-1.2,7.4
		c0,3,0.4,5.7,1.3,8c0.9,2.3,2,4.3,3.5,5.8c1.4,1.5,3.2,2.8,5.2,3.9C885.3,291.3,887.6,291.8,890.1,291.8z"/>
	<path class="st1" d="M932.3,248.2H948v5.5h-5v22.6c0,2.7,0.3,5,0.9,6.9c0.6,1.9,1.5,3.5,2.5,4.7c1.1,1.2,2.4,2.1,3.8,2.6
		c1.5,0.6,3.1,0.8,4.9,0.8c1.8,0,3.5-0.2,5.1-0.7c1.5-0.5,2.9-1.3,4-2.5c1.1-1.2,2-2.7,2.6-4.6c0.6-1.9,0.9-4.3,0.9-7.2v-22.6h-5.3
		v-5.6h15.7v5.5h-4.3v21.9c0,3.5-0.5,6.6-1.5,9.3c-1,2.7-2.3,5-4,6.8s-3.7,3.2-6,4.2c-2.3,1-4.7,1.4-7.4,1.4c-2.6,0-5-0.5-7.2-1.4
		c-2.2-0.9-4.2-2.3-5.8-4.1c-1.7-1.8-3-4-3.9-6.7c-1-2.6-1.4-5.6-1.4-9v-22.5h-4.5V248.2z"/>
	<path class="st1" d="M984.8,248.2h15.5v5.5h-4.6v37.5h4.6v5.5h-15.5v-5.5h4.6v-37.5h-4.6V248.2z"/>
</g>
</svg>
