<?xml version="1.0" encoding="utf-8"?>
<!-- Generator: Adobe Illustrator 19.2.0, SVG Export Plug-In . SVG Version: 6.00 Build 0)  -->
<svg version="1.1" id="Layer_1" xmlns="http://www.w3.org/2000/svg" xmlns:xlink="http://www.w3.org/1999/xlink" x="0px" y="0px"
	 viewBox="0 0 430.9 54" style="enable-background:new 0 0 430.9 54;" xml:space="preserve">
<style type="text/css">
	.st0{fill:#5CE500;}
	.st1{fill:#FFFFFF;}
</style>
<title>Telerik_logo</title>
<path class="st0" d="M296.2,23.6L296.2,23.6v17.2c0,0.4-0.2,0.8-0.6,1l-0.6,0.3l-4.3,2.5l-2.9,1.7l-0.6,0.3V28.1l-16-9.3l7.6-4.4
	l0.7-0.4c0.4-0.2,0.8-0.2,1.2,0l10.6,6.1l4.9,2.8L296.2,23.6L296.2,23.6z M283.7,30.1l-3.3-1.9l-7.7-4.5c-0.4-0.2-0.8-0.2-1.2,0
	l-6.8,3.9l-0.6,0.3l11.6,6.7v13.4l6.8-3.9l0.6-0.3c0.3-0.2,0.6-0.6,0.6-1L283.7,30.1L283.7,30.1z M264,41.5l8,4.6v-9.3L264,41.5z"/>
<path class="st1" d="M313.8,22.9h-8.8v23.7h3.9v-9.3h4.9c5.3,0,8.2-2.6,8.2-7.3C322.1,27.9,321.3,22.9,313.8,22.9 M318.2,30.1
	c0,2.7-1.4,3.8-4.8,3.8H309v-7.4h4.9C316.8,26.4,318.2,27.6,318.2,30.1 M333.7,29.4l0.3,0.1l-0.7,3.5l-0.5-0.1
	c-0.4-0.1-0.7-0.2-1.1-0.2c-3.6,0-3.9,2.9-3.9,6.4v7.5h-3.6V29.2h3.4v2.1c0.7-1.3,2-2.2,3.5-2.3C331.9,28.9,332.8,29,333.7,29.4
	 M342.4,28.9c-2.6-0.1-5,1.1-6.5,3.1c-1.2,1.8-1.8,3.9-1.8,6c0,5.5,3.3,9,8.3,9c6.1,0,8.3-4.9,8.3-9.2c0.1-2.2-0.6-4.4-2-6.2
	C347.2,29.8,344.9,28.8,342.4,28.9 M342.5,43.8c-2.8,0-4.6-2.2-4.6-5.8s1.7-5.9,4.6-5.9s4.6,2.3,4.6,5.8S345.3,43.8,342.5,43.8
	 M381,29.4l0.3,0.1l-0.7,3.5l-0.5-0.1c-0.4-0.1-0.8-0.2-1.2-0.2c-3.6,0-3.9,2.9-3.9,6.4v7.5h-3.6V29.2h3.4v2.1
	c0.7-1.3,2-2.2,3.5-2.3C379.3,28.9,380.2,29,381,29.4 M393.9,41l-0.1,0.2c-0.6,1.7-2.2,2.7-3.9,2.6c-2.7,0-4.5-1.8-4.6-4.7h12.3
	v-0.3c0-0.5,0-0.9,0-1.4c0-0.1,0-0.2,0-0.3c-0.2-4.9-3.4-8.1-7.9-8.1c-2.5-0.1-4.8,1-6.3,3c-1.2,1.8-1.8,3.9-1.8,6.1
	c0,5.4,3.3,9,8.3,9c3.9,0,6.5-2,7.5-5.5l0.1-0.4L393.9,41L393.9,41z M385.4,36c0.1-2.3,2-4,4.3-3.9c2.2-0.1,4.1,1.7,4.2,3.9H385.4
	L385.4,36z M365,30.7c-1.2-1.2-2.9-1.9-4.6-1.8c-5.3,0-7.7,4.6-7.7,9s2.4,8.9,7.7,8.9c1.7,0,3.3-0.6,4.5-1.8c0,0.8,0,1.5-0.1,1.8
	c-0.2,2.9-1.6,4.2-4.3,4.2c-1.5,0-3.2-0.5-3.6-2l-0.1-0.3h-3.5l0.1,0.4c0.4,3.1,3.1,5,7,5c3.5,0,6-1.3,7.2-3.8
	c0.7-1.6,1-3.4,0.9-5.2V29.2H365C365,29.2,365,30.7,365,30.7z M360.6,43.5c-1.3,0-4.2-0.6-4.2-5.8c0-3.5,1.6-5.6,4.3-5.6
	c2,0,4.2,1.5,4.2,5.6C364.9,41.3,363.3,43.5,360.6,43.5 M414.3,41.4c0,2.8-2.3,5.5-7.4,5.5c-4.5,0-7.2-2-7.6-5.5V41h3.5v0.3
	c0.4,2.2,2.5,2.6,4.1,2.6c1.8,0,3.7-0.6,3.7-2.2c-0.1-0.9-0.7-1.6-1.6-1.7c-0.6-0.2-1.4-0.4-2.2-0.6c-1.4-0.4-2.8-0.8-3.7-1.1
	c-2.2-0.8-3.5-2.3-3.5-4.2c0-3.5,3.4-5.1,6.8-5.1c4.5,0,6.9,1.7,7.2,5.2v0.4h-3.4l0-0.3c-0.4-2-2.4-2.3-3.5-2.3
	c-1,0-3.3,0.2-3.3,1.8c0,0.8,0.6,1.3,2,1.7l1.7,0.5c1.4,0.4,3.2,0.8,4.1,1.1C413.2,37.8,414.3,39.3,414.3,41.4 M430.9,41.4
	c0,2.8-2.3,5.5-7.4,5.5c-4.5,0-7.2-2-7.6-5.5v-0.4h3.5l0,0.3c0.4,2.2,2.5,2.6,4.1,2.6c1.8,0,3.7-0.6,3.7-2.2
	c-0.1-0.9-0.7-1.6-1.6-1.7c-0.6-0.2-1.4-0.4-2.2-0.6c-1.4-0.4-2.9-0.8-3.7-1.1c-2.2-0.8-3.5-2.3-3.5-4.2c0-3.5,3.4-5.1,6.8-5.1
	c4.5,0,6.9,1.7,7.2,5.2v0.4h-3.5l0-0.3c-0.4-2-2.4-2.3-3.5-2.3s-3.4,0.2-3.4,1.8c0,0.8,0.6,1.3,2,1.7l1.7,0.5
	c1.4,0.4,3.2,0.8,4.1,1.1C429.8,37.8,430.9,39.3,430.9,41.4"/>
<path class="st1" d="M225.5,23.1v8.6l0,0c1.2-1.7,3.1-2.6,5.1-2.5c4.8,0,7.5,3.9,7.5,8.8s-2.5,9-7.6,9c-2,0.1-4-0.9-5.1-2.6l0,0v2.2
	h-2.7V23.1H225.5z M230.3,31.6c-3.5,0-4.9,3.2-4.9,6.4c-0.1,1.6,0.3,3.1,1.1,4.5c0.9,1.3,2.3,2.1,3.9,2.1c3.2,0,4.9-2.7,4.9-6.6
	S233.4,31.6,230.3,31.6"/>
<path class="st1" d="M252.2,29.6h2.9l-7.7,20.3c-1.1,2.8-2.3,3.6-4.6,3.6c-0.6,0-1.3-0.1-1.9-0.3l-0.2-2.7c0.5,0.2,1.1,0.3,1.6,0.4
	c1,0.2,2.1-0.4,2.4-1.4l1.2-2.9l-6.6-17h3.1l3.4,9.7l1.4,4.3l0,0l1.5-4.3L252.2,29.6z"/>
<path class="st1" d="M44,10.4H26.9v42.3h-9.9V10.4H0V1.5h44V10.4z M61.2,28.5c-0.5-4.2-3-6.7-7-6.7s-6.6,2.4-7.8,6.7
	C46.4,28.5,61.2,28.5,61.2,28.5z M54.1,13.6c10.2,0,16.2,7,16.2,18.8V36H45.8c0.7,5.9,4.6,9.2,10.8,9.2c3.7,0.1,7.3-1.1,10.3-3.3
	l0.9-0.6V50l-0.2,0.2c-3.1,2.3-7,3.4-12.1,3.4c-11.4,0-19-7.9-19-19.6C36.5,21.9,43.7,13.6,54.1,13.6 M76.1,52.7h9.5V1.5h-9.5
	L76.1,52.7L76.1,52.7z M115.7,28.5c-0.4-4.2-3-6.7-7-6.7s-6.6,2.4-7.8,6.7H115.7L115.7,28.5z M108.7,13.6c10.2,0,16.2,7,16.2,18.8
	V36h-24.5c0.7,5.9,4.6,9.2,10.8,9.2c3.7,0.1,7.3-1.1,10.3-3.3l0.9-0.6V50l-0.2,0.2c-3.1,2.3-7.1,3.4-12.1,3.4
	c-11.3,0-19-7.9-19-19.6C91,21.9,98.2,13.6,108.7,13.6 M147.8,13.7c-3.1,0.1-5.9,1.7-7.7,4.2v-3h-9.5v37.8h9.5V28.9
	c0.6-3.4,3.5-5.9,6.9-6c1.6-0.1,3.2,0.3,4.6,1.1l0.9,0.6v-10l-0.3-0.2C150.8,13.9,149.3,13.6,147.8,13.7 M158.5,52.7h9.5V14.9h-9.5
	L158.5,52.7L158.5,52.7z M163.3,0c-3.1,0-5.7,2.5-5.8,5.7c0,3.2,2.6,5.8,5.8,5.8c3.2,0,5.8-2.6,5.8-5.8C169,2.5,166.4,0,163.3,0
	 M209.5,14.9h-12.1l-13.3,13.9V1.5h-9.5v51.2h9.5V36.1l14.1,16.6h11.6l-17.3-20.6L209.5,14.9z"/>
<path class="st1" d="M216.5,22.7c-2.8,0-5-2.2-5-5c0,0,0-0.1,0-0.1c0-2.8,2.2-5,5-5c2.8,0,5,2.2,5,5c0,2.8-2.2,5-4.9,5.1
	C216.6,22.7,216.6,22.7,216.5,22.7 M216.6,13.4c-2.3,0-4.1,1.8-4.1,4c0,0.1,0,0.1,0,0.2c0,2.3,1.8,4.1,4.1,4.1s4.1-1.8,4.1-4.1
	c0.1-2.3-1.7-4.1-3.9-4.2C216.7,13.4,216.6,13.4,216.6,13.4 M216,18.6v1.7h-1.5v-5.3h2.5c1-0.1,1.9,0.6,2,1.5c0,0.1,0,0.2,0,0.3
	c0.1,0.7-0.3,1.4-1,1.6l1.2,1.9h-1.7l-1-1.7L216,18.6L216,18.6z M216.8,16.2H216v1.2h0.8c0.3,0.1,0.6-0.2,0.7-0.5c0,0,0-0.1,0-0.1
	C217.5,16.5,217.2,16.2,216.8,16.2C216.9,16.2,216.8,16.2,216.8,16.2"/>
</svg>
